# xmcd
#
# Track frame offsets: 
#        150
#        15930
#        34365
#        48255
#        63390
#        77595
#        86670
#        100530
#        116565
#        131858
#        153856
#        169374
#        184217
#        199765
#        218073
#        233501
#        247009
#        257637
#        278172
#        296052
#
# Disc length: 4178 seconds
#
# Revision: 0
# Processed by: cddbd v1.5.2PL0 Copyright (c) Steve Scherf et al.
# Submitted via: ExactAudioCopyFreeDBPlugin 1.0
#
DISCID=15105014
DTITLE=Various Artist - TSP Country and Americana Vol. 180
DYEAR=2018
DGENRE=Country
TTITLE0=Modesto - Fractions
TTITLE1=Anna-Maria Falcone - A Little Change
TTITLE2=Mark Rogers - Imagining
TTITLE3=Mary Anne Message - Sweet Noise
TTITLE4=Eddy Gee - Walking Out The Door
TTITLE5=George Wolf - Weeping Willow
TTITLE6=Karen Euren - Write Your Sorrows In The Sand
TTITLE7=Mark Rogers - Qualifiers
TTITLE8=Louis Sheridan - Midnight Rain
TTITLE9=T J Doyle - Heart's Eyes
TTITLE10=Anna-Maria Falcone - Little Blue Matchbook
TTITLE11=Jesse Jones - Meanwhile In The Honky Tonk
TTITLE12=George Wolf - Tijuana Tonight
TTITLE13=Doug Adkins - I Wish It Were Raining
TTITLE14=Jason V Chapman - Couple Hundred Miles
TTITLE15=Les Hatley - Faster
TTITLE16=Larry M Clark - From Nashville To El Paso
TTITLE17=Paul Malysa - Knelt Down and Prayed
TTITLE18=Paul Malysa - Your Smile
TTITLE19=Lisa Bell - Big Inside
EXTD=
EXTT0=
EXTT1=
EXTT2=
EXTT3=
EXTT4=
EXTT5=
EXTT6=
EXTT7=
EXTT8=
EXTT9=
EXTT10=
EXTT11=
EXTT12=
EXTT13=
EXTT14=
EXTT15=
EXTT16=
EXTT17=
EXTT18=
EXTT19=
PLAYORDER=
